<svg width="888" height="138" viewBox="0 0 888 138" fill="none" xmlns="http://www.w3.org/2000/svg">
<path d="M16.5649 34.7572C19.6926 19.4366 32.4705 11.7763 54.8985 11.7763H130.536L125.73 35.1002H61.6498L45.5154 115.476L108.68 115.591L104.332 137.657H29.8386C7.25805 137.657 -2.50653 130.111 0.544898 115.019L16.5649 34.7572Z" fill="#DB3031"/>
<path d="M151.476 12.005H276.89L264.303 75.3455C262.014 86.169 253.241 91.5427 237.984 91.4665L252.631 137.771L206.516 137.657L191.984 92.3811L181.342 92.2668L172.073 137.657H126.302L144.496 45.8476L190.725 45.9619L186.377 68.7142H220.477L227.457 34.5286L146.899 34.6429L151.476 12.005Z" fill="#DB3031"/>
<path d="M330.099 137.771H273.457L277.92 114.562L294.626 114.79L310.875 92.8384L289.363 12.691H334.677L340.627 57.8525L368.776 12.2336H415.12L330.099 137.771Z" fill="#DB3031"/>
<path d="M426.105 12.4623H517.305C539.809 12.3861 549.535 19.8939 546.484 34.9859L537.33 80.8335C534.278 95.5443 521.462 103.128 498.882 103.586H465.011L469.245 80.7191L492.13 80.9478L501.742 34.8716H421.299L426.105 12.4623ZM418.667 46.5336H464.667L446.359 137.771L400.587 138L418.667 46.5336Z" fill="#DB3031"/>
<path d="M637.684 46.1906L637.226 46.5336L618.688 137.771H573.146L591.798 46.1906H557.469L562.504 22.6379H619.489C626.889 22.7904 631.314 19.3604 632.763 12.348L635.281 0H681.51L676.818 23.3239H677.047L676.818 23.4383C673.843 38.6065 660.836 46.1906 637.798 46.1906H637.684Z" fill="#DB3031"/>
<path d="M699.31 12.005H745.196L720.022 137.657H674.136L699.31 12.005Z" fill="#DB3031"/>
<path d="M767.73 11.8906L811.04 11.8301H815.48H818.44L824.038 11.8906L858.137 11.7763C880.794 11.7001 890.559 19.5509 887.431 35.3289L871.525 115.133C868.626 130.225 855.734 137.771 832.849 137.771H752.634L757.211 115.019H825.525L841.774 35.3289H807.445L788.45 137.771H742.57L767.73 11.8906Z" fill="#DB3031"/>
</svg>
